#!OML:ASF H:\BabyWalks\Project 1\Capture day 1\Session 1\baby.ASF
:FULLY-SPECIFIED
:DEGREES
710
root 39.0802 17.462 1.00847 -199.814 88.3536 -200.972
lowerback 21.3686 0.330625 0.547944
upperback 6.54624 1.00984 0.123852
thorax -4.80474 0.687018 -0.446966
lowerneck 2.46518 2.25133 6.89739
upperneck -11.427 2.55941 -10.7452
head -3.53399 1.57956 -4.53165
rclavicle 1.00386e-014 -1.33186e-014
rhumerus -43.5307 5.95248 -80.4573
rradius 50.0207
rwrist -1.62174
rhand -10.9451 -17.3679
rfingers 7.12502
rthumb 15.0734 -46.7991
lclavicle 1.00386e-014 -1.33186e-014
lhumerus -43.6891 -9.29928 79.9309
lradius 51.1369
lwrist 2.09897
lhand -1.34751 9.77425
lfingers 7.12502
lthumb 24.2991 38.2542
rfemur -16.8037 9.66129 19.0193
rtibia 32.126
rfoot -16.3041 1.44962
rtoes 5.20884
lfemur -11.8653 -7.53641 -15.2019
ltibia 27.9695
lfoot -22.1629 -8.93028
ltoes -3.15551
711
root 39.0855 17.4617 1.00866 -200.941 88.3438 -202.067
lowerback 21.342 0.336015 0.528639
upperback 6.54407 1.01253 0.131379
thorax -4.79384 0.688083 -0.428163
lowerneck 2.46571 2.25031 6.91715
upperneck -11.3845 2.55887 -10.7665
head -3.5207 1.57851 -4.54061
rclavicle 2.88238e-015 -3.18055e-015
rhumerus -43.5375 5.99087 -80.5353
rradius 50.0805
rwrist -1.66083
rhand -10.9697 -17.3506
rfingers 7.12502
rthumb 15.0497 -46.7836
lclavicle 2.88238e-015 -3.18055e-015
lhumerus -43.7077 -9.22777 79.9072
lradius 51.027
lwrist 2.02026
lhand -1.23618 9.88809
lfingers 7.12502
lthumb 24.4058 38.3537
rfemur -16.7567 9.67699 18.9966
rtibia 32.1559
rfoot -16.361 1.27904
rtoes 5.00145
lfemur -11.7717 -7.52668 -15.2446
ltibia 27.8973
lfoot -22.1683 -8.91739
ltoes -3.17429
712
root 39.0915 17.4614 1.00924 -202.086 88.3343 -203.18
lowerback 21.31 0.343992 0.506784
upperback 6.54161 1.01808 0.141418
thorax -4.78059 0.690485 -0.405842
lowerneck 2.46209 2.24988 6.93628
upperneck -11.3339 2.55927 -10.7883
head -3.50424 1.57773 -4.54939
rclavicle -1.88845e-015 9.93923e-015
rhumerus -43.5463 6.028 -80.6122
rradius 50.1302
rwrist -1.68787
rhand -10.9861 -17.3321
rfingers 7.12502
rthumb 15.0339 -46.7663
lclavicle -1.88845e-015 9.93923e-015
lhumerus -43.7204 -9.15192 79.8848
lradius 50.9127
lwrist 1.93374
lhand -1.14707 9.98986
lfingers 7.12502
lthumb 24.4912 38.4439
rfemur -16.7036 9.68415 18.9785
rtibia 32.1866
rfoot -16.4281 1.11332
rtoes 4.7646
lfemur -11.6689 -7.5156 -15.2855
ltibia 27.8179
lfoot -22.1752 -8.90743
ltoes -3.18169
713
root 39.0981 17.4611 1.01014 -203.202 88.3258 -204.262
lowerback 21.2733 0.35389 0.487055
upperback 6.53791 1.02642 0.152494
thorax -4.7662 0.694175 -0.384248
lowerneck 2.45506 2.24912 6.95646
upperneck -11.2766 2.55962 -10.8081
head -3.48522 1.57654 -4.55749
rclavicle -5.06901e-015 -3.77691e-015
rhumerus -43.5597 6.06152 -80.6912
rradius 50.1721
rwrist -1.70431
rhand -10.9975 -17.316
rfingers 7.12502
rthumb 15.0229 -46.751
lclavicle -5.06901e-015 -3.77691e-015
lhumerus -43.7302 -9.07438 79.8619
lradius 50.7965
lwrist 1.83964
lhand -1.08353 10.0751
lfingers 7.12502
lthumb 24.5521 38.5209
rfemur -16.6445 9.67925 18.9662
rtibia 32.2176
rfoot -16.5063 0.966429
rtoes 4.51332
lfemur -11.5585 -7.50311 -15.3238
ltibia 27.7347
lfoot -22.1858 -8.89813
ltoes -3.18775
714
root 39.1056 17.4607 1.01133 -204.283 88.3195 -205.306
lowerback 21.2292 0.36512 0.471356
upperback 6.53413 1.03721 0.164595
thorax -4.74802 0.699018 -0.364333
lowerneck 2.44476 2.24697 6.97467
upperneck -11.213 2.55841 -10.8245
head -3.46404 1.5743 -4.56399
rclavicle 4.87022e-015 1.33186e-014
rhumerus -43.5756 6.09087 -80.771
rradius 50.2066
rwrist -1.71125
rhand -10.9979 -17.299
rfingers 7.12502
rthumb 15.0225 -46.734
lclavicle 4.87022e-015 1.33186e-014
lhumerus -43.7342 -8.9954 79.8368
lradius 50.6811
lwrist 1.75466
lhand -1.03296 10.1553
lfingers 7.12502
lthumb 24.6006 38.5945
rfemur -16.58 9.66994 18.9593
rtibia 32.249
rfoot -16.5979 0.843368
rtoes 4.28355
lfemur -11.4403 -7.49087 -15.359
ltibia 27.6488
lfoot -22.1986 -8.88641
ltoes -3.19131
715
root 39.1139 17.4603 1.01291 -205.169 88.3172 -206.152
lowerback 21.178 0.37668 0.466042
upperback 6.52965 1.05043 0.177899
thorax -4.72681 0.704987 -0.349526
lowerneck 2.42557 2.24357 6.98857
upperneck -11.1366 2.55622 -10.8321
head -3.4379 1.57084 -4.56654
rclavicle 6.4605e-015 9.34288e-015
rhumerus -43.5981 6.11185 -80.8544
rradius 50.2352
rwrist -1.70898
rhand -10.9936 -17.2836
rfingers 7.12502
rthumb 15.0266 -46.7183
lclavicle 6.4605e-015 9.34288e-015
lhumerus -43.7398 -8.91544 79.8092
lradius 50.5733
lwrist 1.67747
lhand -0.994355 10.2291
lfingers 7.12502
lthumb 24.6376 38.6633
rfemur -16.5078 9.66436 18.9622
rtibia 32.2811
rfoot -16.7071 0.745524
rtoes 4.11179
lfemur -11.3135 -7.4781 -15.3854
ltibia 27.5604
lfoot -22.2127 -8.87246
ltoes -3.19035
716
root 39.1232 17.46 1.01491 -205.91 88.3197 -206.849
lowerback 21.1218 0.388418 0.470377
upperback 6.52289 1.06565 0.192617
thorax -4.70537 0.711818 -0.339121
lowerneck 2.40447 2.23722 7.00161
upperneck -11.0569 2.55026 -10.8374
head -3.41085 1.56532 -4.56804
rclavicle -8.94531e-015 -2.38542e-015
rhumerus -43.6286 6.12649 -80.9413
rradius 50.2585
rwrist -1.69875
rhand -10.9843 -17.2703
rfingers 7.12502
rthumb 15.0356 -46.7043
lclavicle -8.94531e-015 -2.38542e-015
lhumerus -43.7491 -8.83685 79.7796
lradius 50.4706
lwrist 1.6147
lhand -0.966724 10.2891
lfingers 7.12502
lthumb 24.6641 38.7197
rfemur -16.4302 9.66783 18.9733
rtibia 32.3145
rfoot -16.833 0.673614
rtoes 4.00612
lfemur -11.1776 -7.46344 -15.4042
ltibia 27.4704
lfoot -22.2294 -8.8533
ltoes -3.19555
717
root 39.1333 17.46 1.01731 -206.54 88.3276 -207.434
lowerback 21.0599 0.399273 0.486103
upperback 6.51393 1.0817 0.207105
thorax -4.68314 0.718957 -0.335562
lowerneck 2.37795 2.23101 7.01576
upperneck -10.9704 2.54476 -10.8413
head -3.38086 1.55965 -4.56906
rclavicle -1.51076e-014 -1.15295e-014
rhumerus -43.6674 6.13382 -81.0334
rradius 50.2779
rwrist -1.67943
rhand -10.9676 -17.2565
rfingers 7.12502
rthumb 15.0517 -46.6894
lclavicle -1.51076e-014 -1.15295e-014
lhumerus -43.7633 -8.76106 79.7464
lradius 50.376
lwrist 1.56686
lhand -0.949131 10.3377
lfingers 7.12502
lthumb 24.681 38.7659
rfemur -16.3496 9.6936 18.9878
rtibia 32.3494
rfoot -16.9701 0.63655
rtoes 4.06687
lfemur -11.034 -7.45014 -15.4164
ltibia 27.3811
lfoot -22.2487 -8.82481
ltoes -3.19868
718
root 39.1444 17.4599 1.02005 -207.132 88.339 -207.976
lowerback 20.9949 0.408754 0.51063
upperback 6.50054 1.09735 0.222033
thorax -4.66398 0.725717 -0.336421
lowerneck 2.35235 2.22321 7.02828
upperneck -10.8824 2.53704 -10.846
head -3.35081 1.55298 -4.57001
rclavicle -2.78299e-015 9.93923e-015
rhumerus -43.7198 6.13967 -81.1311
rradius 50.2955
rwrist -1.65655
rhand -10.9488 -17.2442
rfingers 7.12502
rthumb 15.0698 -46.6757
lclavicle -2.78299e-015 9.93923e-015
lhumerus -43.7886 -8.68592 79.7113
lradius 50.2936
lwrist 1.53208
lhand -0.934159 10.3772
lfingers 7.12502
lthumb 24.6953 38.8035
rfemur -16.2646 9.73443 19.0055
rtibia 32.3876
rfoot -17.1187 0.618673
rtoes 4.21095
lfemur -10.8814 -7.43812 -15.4256
ltibia 27.2907
lfoot -22.2707 -8.78306
ltoes -3.20553
